HIERARCHY
ROOT Hips
{
 OFFSET 0.000000 0.000000 0.000000
 CHANNELS 6 Xposition Yposition Zposition Yrotation Xrotation Zrotation
 JOINT Chest
 {
  OFFSET 0.000000 9.585900 0.002600
  CHANNELS 3 Yrotation Xrotation Zrotation
  JOINT Chest2
  {
   OFFSET 0.000000 9.601200 -0.005300
   CHANNELS 3 Yrotation Xrotation Zrotation
   JOINT Chest3
   {
    OFFSET 0.000000 9.561800 0.000000
    CHANNELS 3 Yrotation Xrotation Zrotation
    JOINT Chest4
    {
     OFFSET 0.000000 9.552100 0.000000
     CHANNELS 3 Yrotation Xrotation Zrotation
     JOINT Neck
     {
      OFFSET 0.000000 14.453000 0.000000
      CHANNELS 3 Yrotation Xrotation Zrotation
      JOINT Head
      {
       OFFSET 0.000000 8.936500 -0.011300
       CHANNELS 3 Yrotation Xrotation Zrotation
       End Site
       {
        OFFSET 0.000000 17.073600 -0.006000
       }
      }
     }
     JOINT RightCollar
     {
      OFFSET -2.921100 9.558500 0.000000
      CHANNELS 3 Yrotation Xrotation Zrotation
      JOINT RightShoulder
      {
       OFFSET -13.519700 0.000000 0.000000
       CHANNELS 3 Yrotation Xrotation Zrotation
       JOINT RightElbow
       {
        OFFSET 0.000000 -29.696600 0.000000
        CHANNELS 3 Yrotation Xrotation Zrotation
        JOINT RightWrist
        {
         OFFSET 0.000000 -24.004700 0.000000
         CHANNELS 3 Yrotation Xrotation Zrotation
         End Site
         {
          OFFSET 0.000000 -17.728500 0.000000
         }
        }
       }
      }
     }
     JOINT LeftCollar
     {
      OFFSET 2.921100 9.558500 0.000000
      CHANNELS 3 Yrotation Xrotation Zrotation
      JOINT LeftShoulder
      {
       OFFSET 13.519700 0.000000 0.000000
       CHANNELS 3 Yrotation Xrotation Zrotation
       JOINT LeftElbow
       {
        OFFSET 0.000000 -29.696600 0.000000
        CHANNELS 3 Yrotation Xrotation Zrotation
        JOINT LeftWrist
        {
         OFFSET 0.000000 -24.004700 0.000000
         CHANNELS 3 Yrotation Xrotation Zrotation
         End Site
         {
          OFFSET 0.000000 -17.728500 0.000000
         }
        }
       }
      }
     }
    }
   }
  }
 }
 JOINT RightHip
 {
  OFFSET -7.771700 -0.012900 -0.001300
  CHANNELS 3 Yrotation Xrotation Zrotation
  JOINT RightKnee
  {
   OFFSET 0.000000 -40.869800 0.001200
   CHANNELS 3 Yrotation Xrotation Zrotation
   JOINT RightAnkle
   {
    OFFSET 0.000000 -39.717900 0.002100
    CHANNELS 3 Yrotation Xrotation Zrotation
    JOINT RightToe
    {
     OFFSET 0.000000 -4.965400 11.033500
     CHANNELS 3 Yrotation Xrotation Zrotation
     End Site
     {
      OFFSET 0.000000 -1.423100 5.872300
     }
    }
   }
  }
 }
 JOINT LeftHip
 {
  OFFSET 7.771700 -0.012900 -0.001300
  CHANNELS 3 Yrotation Xrotation Zrotation
  JOINT LeftKnee
  {
   OFFSET 0.000000 -40.869800 0.001200
   CHANNELS 3 Yrotation Xrotation Zrotation
   JOINT LeftAnkle
   {
    OFFSET 0.000000 -39.717900 0.002100
    CHANNELS 3 Yrotation Xrotation Zrotation
    JOINT LeftToe
    {
     OFFSET 0.000000 -4.965400 11.033500
     CHANNELS 3 Yrotation Xrotation Zrotation
     End Site
     {
      OFFSET 0.000000 -1.423100 5.872300
     }
    }
   }
  }
 }
}
MOTION
Frames: 8
Frame Time: 0.008333
-139.413686 58.018998 114.333136 176.975877 -28.689815 -0.826079 1.407418 17.362772 1.931163 0.083638 1.866851 0.179399 0.191707 3.107311 0.301293 1.157132 15.255245 1.603130 -0.462187 12.796093 -4.065348 0.809631 -11.937551 -7.688122 2.736037 -0.692806 -1.296951 -1.723055 -12.269374 -13.359175 147.262645 -55.706288 -133.220254 12.519423 -13.961808 -48.174808 -5.275877 -0.663659 -2.038204 20.564813 -12.600725 -0.082020 -178.826776 -62.354743 161.370507 -5.534719 -7.385651 24.804416 4.554030 -46.626546 -1.786761 -14.590067 65.643380 -17.989229 8.020455 25.503378 6.737648 -0.335107 -17.075794 1.893842 -4.095048 -44.064532 0.748950 24.456665 66.239003 21.514201 -17.333672 3.093600 -0.552222 0.047420 -0.001621 0.020272
-139.416056 58.019571 114.328897 176.990557 -28.697401 -0.801074 1.416533 17.370971 1.907156 0.084116 1.869547 0.178784 0.194810 3.109255 0.299674 1.136232 15.251973 1.605043 -0.466542 12.799095 -4.117819 0.762267 -11.943595 -7.735285 2.750227 -0.698408 -1.274480 -1.719011 -12.280287 -13.365415 147.323546 -55.690648 -133.291919 12.520133 -13.971247 -48.178118 -5.265245 -0.683512 -2.070854 20.600029 -12.621426 -0.088181 -178.875362 -62.381712 161.380461 -5.547699 -7.350970 24.724168 4.587066 -46.621831 -1.841501 -14.621674 65.655228 -18.017770 8.037995 25.503840 6.745340 -0.337339 -17.086462 1.894832 -4.071685 -44.057314 0.691661 24.465736 66.237283 21.532583 -17.328103 3.094456 -0.553920 0.044987 -0.005800 0.019067
-139.417122 58.020302 114.323932 176.997369 -28.711282 -0.786398 1.429067 17.384635 1.894659 0.127893 1.869841 0.176397 0.193142 3.111813 0.297136 1.128984 15.253941 1.603617 -0.489588 12.800167 -4.208439 0.684421 -11.947568 -7.715687 2.716724 -0.708879 -1.234287 -1.702853 -12.299949 -13.358028 147.362833 -55.678776 -133.337806 12.523222 -13.979257 -48.193077 -5.313442 -0.690417 -2.048739 20.618056 -12.636952 -0.106714 -178.958192 -62.415028 161.455736 -5.526140 -7.296308 24.625595 4.603616 -46.609559 -1.868834 -14.655324 65.671233 -18.053981 8.053699 25.485923 6.754494 -0.338649 -17.086359 1.893175 -4.057243 -44.043012 0.656378 24.478873 66.242594 21.547339 -17.308658 3.087477 -0.543896 0.031850 -0.006758 0.013831
-139.418063 58.019850 114.320785 177.001733 -28.713356 -0.776801 1.429441 17.386773 1.884100 0.153662 1.867773 0.176208 0.169100 3.113981 0.297495 1.231010 15.253136 1.581272 -0.571885 12.800599 -4.210796 0.628513 -11.943638 -7.760527 2.615563 -0.714561 -1.176351 -1.668784 -12.326047 -13.332460 147.317638 -55.677403 -133.303133 12.512587 -14.018660 -48.233209 -5.410055 -0.695739 -2.020706 20.616593 -12.654969 -0.104951 -179.074233 -62.459862 161.553641 -5.497596 -7.280920 24.588475 4.627072 -46.612992 -1.899403 -14.678177 65.685700 -18.062464 8.053338 25.485209 6.745639 -0.334298 -17.093696 1.896286 -4.049486 -44.040788 0.636143 24.486511 66.241459 21.557599 -17.314099 3.090151 -0.544687 0.025777 -0.009558 0.012438
-139.418999 58.019838 114.316785 177.008192 -28.721714 -0.770760 1.454123 17.390223 1.883554 0.154683 1.868623 0.179304 0.174802 3.114472 0.292289 1.250568 15.249664 1.580399 -0.609740 12.805568 -4.242747 0.569334 -11.935311 -7.805589 2.587193 -0.711550 -1.134386 -1.667174 -12.340336 -13.332289 147.312410 -55.669989 -133.302135 12.507543 -14.042128 -48.263374 -5.425246 -0.697332 -2.038750 20.575649 -12.673347 -0.083821 -179.254114 -62.508676 161.710760 -5.475540 -7.290169 24.591282 4.643092 -46.607940 -1.927862 -14.688322 65.699646 -18.054643 8.053783 25.482424 6.733448 -0.331576 -17.099405 1.898869 -4.045954 -44.031689 0.617317 24.487719 66.242628 21.565999 -17.306829 3.092134 -0.549593 0.028472 -0.013375 0.012385
-139.421832 58.019480 114.313470 177.009340 -28.725445 -0.751610 1.477864 17.392716 1.877007 0.141141 1.867313 0.176038 0.222439 3.107683 0.292321 1.242620 15.245997 1.576051 -0.652891 12.815917 -4.247635 0.518249 -11.922133 -7.877395 2.562937 -0.701196 -1.091143 -1.684241 -12.346081 -13.347216 147.476419 -55.635958 -133.462934 12.521582 -14.017476 -48.274171 -5.446794 -0.684216 -2.045597 20.539458 -12.686740 -0.064658 -179.501663 -62.552732 161.936505 -5.448879 -7.315915 24.621411 4.654808 -46.606802 -1.967586 -14.662150 65.715919 -18.017357 8.047819 25.474052 6.718209 -0.331037 -17.098405 1.898892 -4.036510 -44.023778 0.586386 24.506268 66.237570 21.584654 -17.303569 3.084711 -0.551050 0.027144 -0.007692 0.009959
-139.424954 58.018944 114.311028 177.022783 -28.724088 -0.735593 1.489871 17.385404 1.865791 0.127576 1.869587 0.173960 0.215402 3.108916 0.291694 1.260603 15.240493 1.573001 -0.671129 12.821310 -4.263705 0.465167 -11.901205 -7.946023 2.599149 -0.703097 -1.041919 -1.698481 -12.361172 -13.358622 147.510663 -55.615316 -133.512885 12.522705 -14.025046 -48.309253 -5.454558 -0.674572 -2.051006 20.526782 -12.711188 -0.078094 -179.752263 -62.612915 162.149554 -5.414809 -7.356089 24.669865 4.657910 -46.607444 -2.003278 -14.649797 65.728061 -17.999341 8.038138 25.459205 6.700983 -0.324477 -17.091445 1.901444 -4.028487 -44.025607 0.554311 24.499633 66.237344 21.581044 -17.306120 3.086298 -0.554969 0.027301 -0.006883 0.010893
-139.426278 58.018529 114.309258 177.030545 -28.720434 -0.725181 1.536383 17.364385 1.880271 0.105571 1.878237 0.166472 0.218254 3.105835 0.289888 1.248967 15.242102 1.569955 -0.686740 12.825668 -4.305463 0.407241 -11.869146 -7.985923 2.604202 -0.700664 -1.013956 -1.688355 -12.380070 -13.339714 147.505591 -55.595090 -133.518632 12.531712 -13.998944 -48.307945 -5.473620 -0.664580 -2.046493 20.524625 -12.728138 -0.105540 179.993349 -62.670568 162.366165 -5.371391 -7.413550 24.728701 4.662506 -46.610439 -2.025238 -14.645967 65.734276 -17.993178 8.028508 25.451051 6.693395 -0.320390 -17.087141 1.901499 -4.028269 -44.026839 0.541613 24.485644 66.234887 21.563626 -17.320480 3.085341 -0.553872 0.034184 -0.001890 0.007777
